<?xml version="1.0" encoding="UTF-8"?>
<!DOCTYPE svg PUBLIC "-//W3C//DTD SVG 1.1//EN" "http://www.w3.org/Graphics/SVG/1.1/DTD/svg11.dtd">
<svg xmlns="http://www.w3.org/2000/svg" version="1.1" width="577px" height="432px" style="shape-rendering:geometricPrecision; text-rendering:geometricPrecision; image-rendering:optimizeQuality; fill-rule:evenodd; clip-rule:evenodd" xmlns:xlink="http://www.w3.org/1999/xlink">
<g><path style="opacity:0.847" fill="#86a998" d="M 326.5,72.5 C 322.833,72.5 319.167,72.5 315.5,72.5C 319.167,69.8333 322.833,69.8333 326.5,72.5 Z"/></g>
<g><path style="opacity:1" fill="#2d6749" d="M 315.5,72.5 C 319.167,72.5 322.833,72.5 326.5,72.5C 327.492,72.3284 328.158,72.6618 328.5,73.5C 328.5,73.8333 328.5,74.1667 328.5,74.5C 328.663,76.8568 328.497,79.1902 328,81.5C 327.617,80.944 327.117,80.6107 326.5,80.5C 324.858,78.9192 322.858,78.2525 320.5,78.5C 319.431,81.1956 320.431,83.1956 323.5,84.5C 327.787,87.5947 328.454,91.2614 325.5,95.5C 324.5,95.8333 323.833,96.5 323.5,97.5C 318.515,101.388 313.348,101.388 308,97.5C 307.534,94.688 308.034,92.0213 309.5,89.5C 310.901,90.5207 312.235,91.5207 313.5,92.5C 314.568,93.4345 315.901,93.7678 317.5,93.5C 317.768,91.901 317.434,90.5676 316.5,89.5C 310.484,85.9955 309.15,81.3289 312.5,75.5C 313.833,74.8333 314.833,73.8333 315.5,72.5 Z"/></g>
<g><path style="opacity:0.478" fill="#acc4b9" d="M 315.5,72.5 C 314.833,73.8333 313.833,74.8333 312.5,75.5C 312.5,73.5 313.5,72.5 315.5,72.5 Z"/></g>
<g><path style="opacity:0.333" fill="#c1d3ca" d="M 269.5,76.5 C 266.763,76.4013 264.096,76.7347 261.5,77.5C 262.492,75.9735 263.992,75.3068 266,75.5C 267.385,75.5143 268.551,75.8476 269.5,76.5 Z"/></g>
<g><path style="opacity:0.016" fill="#f2f6f4" d="M 328.5,74.5 C 328.5,74.1667 328.5,73.8333 328.5,73.5C 330.552,74.0527 330.885,75.0527 329.5,76.5C 329.672,75.5084 329.338,74.8417 328.5,74.5 Z"/></g>
<g><path style="opacity:1" fill="#2c6648" d="M 269.5,76.5 C 270.404,77.209 270.737,78.209 270.5,79.5C 270.5,80.8333 269.833,81.5 268.5,81.5C 267.022,81.238 265.689,81.5713 264.5,82.5C 266.029,83.7629 267.695,84.7629 269.5,85.5C 269.81,87.1436 270.81,88.1436 272.5,88.5C 273.833,90.5 273.833,92.5 272.5,94.5C 271.167,95.1667 270.167,96.1667 269.5,97.5C 269.158,98.3382 268.492,98.6716 267.5,98.5C 265.396,98.7989 263.396,98.4656 261.5,97.5C 260.295,96.0052 260.295,94.6719 261.5,93.5C 262.978,93.762 264.311,93.4287 265.5,92.5C 264.099,91.4793 262.765,90.4793 261.5,89.5C 261.027,88.0937 260.027,87.427 258.5,87.5C 257.244,85.059 257.244,82.7257 258.5,80.5C 259.833,79.8333 260.833,78.8333 261.5,77.5C 264.096,76.7347 266.763,76.4013 269.5,76.5 Z"/></g>
<g><path style="opacity:0.408" fill="#b1c8be" d="M 261.5,77.5 C 260.833,78.8333 259.833,79.8333 258.5,80.5C 258.5,78.5 259.5,77.5 261.5,77.5 Z"/></g>
<g><path style="opacity:0.141" fill="#c1d3cb" d="M 320.5,78.5 C 321.5,80.5 322.5,82.5 323.5,84.5C 320.431,83.1956 319.431,81.1956 320.5,78.5 Z"/></g>
<g><path style="opacity:0.388" fill="#bccfc6" d="M 270.5,79.5 C 271.404,80.209 271.737,81.209 271.5,82.5C 270.209,82.7373 269.209,82.404 268.5,81.5C 269.833,81.5 270.5,80.8333 270.5,79.5 Z"/></g>
<g><path style="opacity:0.02" fill="#c0d2c9" d="M 328.5,74.5 C 329.338,74.8417 329.672,75.5084 329.5,76.5C 329.5,78.5 329.5,80.5 329.5,82.5C 327.821,82.7148 326.821,82.0481 326.5,80.5C 327.117,80.6107 327.617,80.944 328,81.5C 328.497,79.1902 328.663,76.8568 328.5,74.5 Z"/></g>
<g><path style="opacity:0.349" fill="#c1d3cb" d="M 353.5,84.5 C 352.041,84.4326 350.708,84.7659 349.5,85.5C 349.62,84.4138 350.287,83.7472 351.5,83.5C 352.416,83.5427 353.083,83.8761 353.5,84.5 Z"/></g>
<g><path style="opacity:0.894" fill="#7fa492" d="M 240.5,86.5 C 238.283,85.6314 235.95,85.298 233.5,85.5C 236.477,82.5019 238.81,82.8352 240.5,86.5 Z"/></g>
<g><path style="opacity:0.999" fill="#296446" d="M 233.5,85.5 C 235.95,85.298 238.283,85.6314 240.5,86.5C 239.552,87.9779 238.219,88.9779 236.5,89.5C 233.833,90.5 233.833,91.5 236.5,92.5C 238.599,93.6118 240.933,94.2785 243.5,94.5C 243.833,95.5 244.5,96.1667 245.5,96.5C 246.833,98.5 246.833,100.5 245.5,102.5C 244.094,102.973 243.427,103.973 243.5,105.5C 242.486,106.674 241.153,107.34 239.5,107.5C 237.708,107.634 236.042,107.301 234.5,106.5C 234.5,106.167 234.5,105.833 234.5,105.5C 235.1,104.1 236.1,103.1 237.5,102.5C 239.048,102.179 239.715,101.179 239.5,99.5C 238.5,99.5 237.5,99.5 236.5,99.5C 233.077,99.8721 230.577,98.5388 229,95.5C 228.211,93.2884 228.378,91.2884 229.5,89.5C 231.167,88.5 232.5,87.1667 233.5,85.5 Z"/></g>
<g><path style="opacity:0.999" fill="#266244" d="M 353.5,84.5 C 353.833,84.5 354.167,84.5 354.5,84.5C 355.806,85.4674 356.473,86.8007 356.5,88.5C 356.461,89.5832 356.127,90.5832 355.5,91.5C 356.243,92.1818 356.909,92.8485 357.5,93.5C 358.833,94.5 358.833,95.5 357.5,96.5C 357.134,97.6946 356.301,98.3613 355,98.5C 353.838,97.8132 352.672,97.6466 351.5,98C 349.506,100.158 348.172,102.658 347.5,105.5C 349.219,106.022 350.552,107.022 351.5,108.5C 350.221,109.968 348.554,110.635 346.5,110.5C 344.784,109.029 342.784,108.029 340.5,107.5C 340.5,105.167 340.5,102.833 340.5,100.5C 341.906,100.027 342.573,99.0269 342.5,97.5C 343.494,95.6656 343.494,93.9989 342.5,92.5C 342.557,91.391 342.89,90.391 343.5,89.5C 346.888,90.0306 348.888,88.6973 349.5,85.5C 350.708,84.7659 352.041,84.4326 353.5,84.5 Z"/></g>
<g><path style="opacity:0.804" fill="#97b5a6" d="M 354.5,84.5 C 358.563,84.616 359.23,85.9493 356.5,88.5C 356.473,86.8007 355.806,85.4674 354.5,84.5 Z"/></g>
<g><path style="opacity:0.694" fill="#8cae9e" d="M 233.5,85.5 C 232.5,87.1667 231.167,88.5 229.5,89.5C 229.833,87.1667 231.167,85.8333 233.5,85.5 Z"/></g>
<g><path style="opacity:0.788" fill="#87aa9a" d="M 258.5,87.5 C 260.027,87.427 261.027,88.0937 261.5,89.5C 259.973,89.573 258.973,88.9063 258.5,87.5 Z"/></g>
<g><path style="opacity:0.478" fill="#94b3a4" d="M 269.5,85.5 C 271.19,85.8564 272.19,86.8564 272.5,88.5C 270.81,88.1436 269.81,87.1436 269.5,85.5 Z"/></g>
<g><path style="opacity:0.718" fill="#95b4a5" d="M 240.5,86.5 C 242.088,87.6353 242.421,88.9686 241.5,90.5C 239.929,89.6906 238.262,89.3573 236.5,89.5C 238.219,88.9779 239.552,87.9779 240.5,86.5 Z"/></g>
<g><path style="opacity:0.804" fill="#79a08d" d="M 349.5,85.5 C 348.888,88.6973 346.888,90.0306 343.5,89.5C 345.463,88.1798 347.463,86.8465 349.5,85.5 Z"/></g>
<g><path style="opacity:0.278" fill="#c5d6cf" d="M 343.5,89.5 C 342.89,90.391 342.557,91.391 342.5,92.5C 341.115,91.0527 341.448,90.0527 343.5,89.5 Z"/></g>
<g><path style="opacity:0.365" fill="#a7c0b4" d="M 236.5,89.5 C 235.167,90.5 235.167,91.5 236.5,92.5C 233.833,91.5 233.833,90.5 236.5,89.5 Z"/></g>
<g><path style="opacity:0.149" fill="#b2c8be" d="M 236.5,92.5 C 239.228,92.1706 241.562,92.8372 243.5,94.5C 240.933,94.2785 238.599,93.6118 236.5,92.5 Z"/></g>
<g><path style="opacity:0.345" fill="#a3bdb1" d="M 316.5,89.5 C 317.434,90.5676 317.768,91.901 317.5,93.5C 315.901,93.7678 314.568,93.4345 313.5,92.5C 314.5,92.5 315.5,92.5 316.5,92.5C 316.5,91.5 316.5,90.5 316.5,89.5 Z"/></g>
<g><path style="opacity:0.024" fill="#c1d3ca" d="M 243.5,94.5 C 244.833,94.5 245.5,95.1667 245.5,96.5C 244.5,96.1667 243.833,95.5 243.5,94.5 Z"/></g>
<g><path style="opacity:0.02" fill="#d2dfd9" d="M 357.5,93.5 C 360.167,94.5 360.167,95.5 357.5,96.5C 358.833,95.5 358.833,94.5 357.5,93.5 Z"/></g>
<g><path style="opacity:0.02" fill="#cbdad3" d="M 272.5,94.5 C 272.5,96.5 271.5,97.5 269.5,97.5C 270.167,96.1667 271.167,95.1667 272.5,94.5 Z"/></g>
<g><path style="opacity:0.016" fill="#c3d5cd" d="M 325.5,95.5 C 325.5,96.8333 324.833,97.5 323.5,97.5C 323.833,96.5 324.5,95.8333 325.5,95.5 Z"/></g>
<g><path style="opacity:0.314" fill="#b4cac0" d="M 261.5,93.5 C 260.295,94.6719 260.295,96.0052 261.5,97.5C 263.396,98.4656 265.396,98.7989 267.5,98.5C 265.307,99.7969 262.973,99.7969 260.5,98.5C 259.294,96.4841 259.294,94.4841 260.5,92.5C 261.107,92.6236 261.44,92.9569 261.5,93.5 Z"/></g>
<g><path style="opacity:0.071" fill="#d0ded7" d="M 236.5,99.5 C 237.5,99.5 238.5,99.5 239.5,99.5C 239.715,101.179 239.048,102.179 237.5,102.5C 237.611,101.883 237.944,101.383 238.5,101C 237.584,100.722 236.918,100.222 236.5,99.5 Z"/></g>
<g><path style="opacity:0.435" fill="#9ab8a9" d="M 342.5,97.5 C 342.573,99.0269 341.906,100.027 340.5,100.5C 340.427,98.9731 341.094,97.9731 342.5,97.5 Z"/></g>
<g><path style="opacity:1" fill="#2e674a" d="M 216.5,108.5 C 215.326,109.514 214.66,110.847 214.5,112.5C 214.167,113.5 213.5,114.167 212.5,114.5C 211.624,114.369 210.957,114.702 210.5,115.5C 211.958,116.782 213.292,116.782 214.5,115.5C 216.5,115.5 217.5,114.5 217.5,112.5C 220.901,111.227 222.234,112.56 221.5,116.5C 217.502,123.058 212.169,124.725 205.5,121.5C 205.027,120.094 204.027,119.427 202.5,119.5C 202.167,118.833 201.833,118.167 201.5,117.5C 200.793,114.214 200.46,110.881 200.5,107.5C 200.328,106.508 200.662,105.842 201.5,105.5C 203.5,104.167 205.167,102.5 206.5,100.5C 213.74,98.4419 217.074,101.109 216.5,108.5 Z M 207.5,106.5 C 210.774,106.628 210.941,107.961 208,110.5C 206.489,109.436 206.323,108.103 207.5,106.5 Z"/></g>
<g><path style="opacity:0.027" fill="#f3f7f5" d="M 234.5,102.5 C 233.662,102.842 233.328,103.508 233.5,104.5C 232.224,103.614 232.224,102.614 233.5,101.5C 234.107,101.624 234.44,101.957 234.5,102.5 Z"/></g>
<g><path style="opacity:0.667" fill="#7fa492" d="M 234.5,102.5 C 235.5,102.5 236.5,102.5 237.5,102.5C 236.1,103.1 235.1,104.1 234.5,105.5C 233.833,105.5 233.5,105.167 233.5,104.5C 233.328,103.508 233.662,102.842 234.5,102.5 Z"/></g>
<g><path style="opacity:0.016" fill="#cddcd5" d="M 245.5,102.5 C 245.573,104.027 244.906,105.027 243.5,105.5C 243.427,103.973 244.094,102.973 245.5,102.5 Z"/></g>
<g><path style="opacity:0.502" fill="#9db9ac" d="M 206.5,100.5 C 205.167,102.5 203.5,104.167 201.5,105.5C 202.167,102.833 203.833,101.167 206.5,100.5 Z"/></g>
<g><path style="opacity:0.059" fill="#dee7e3" d="M 347.5,105.5 C 349.167,105.5 350.833,105.5 352.5,105.5C 352.737,106.791 352.404,107.791 351.5,108.5C 350.552,107.022 349.219,106.022 347.5,105.5 Z"/></g>
<g><path style="opacity:0.278" fill="#d4e0da" d="M 234.5,106.5 C 236.042,107.301 237.708,107.634 239.5,107.5C 238.903,108.139 238.07,108.472 237,108.5C 235.624,108.316 234.791,107.649 234.5,106.5 Z"/></g>
<g><path style="opacity:1" fill="#749b86" d="M 340.5,100.5 C 340.5,102.833 340.5,105.167 340.5,107.5C 342.784,108.029 344.784,109.029 346.5,110.5C 346.167,110.5 345.833,110.5 345.5,110.5C 338.955,109.412 337.289,106.079 340.5,100.5 Z"/></g>
<g><path style="opacity:0.027" fill="#d5e1dc" d="M 378.5,107.5 C 380.483,107.157 381.817,107.824 382.5,109.5C 381.005,109.011 379.671,108.345 378.5,107.5 Z"/></g>
<g><path style="opacity:1" fill="#31694c" d="M 378.5,107.5 C 379.671,108.345 381.005,109.011 382.5,109.5C 382.833,110.5 383.5,111.167 384.5,111.5C 384.427,113.027 385.094,114.027 386.5,114.5C 387.634,116.966 387.801,119.633 387,122.5C 386.34,124.324 385.173,125.657 383.5,126.5C 379.302,127.875 374.969,128.542 370.5,128.5C 363.824,125.816 361.491,121.15 363.5,114.5C 365.262,113.738 366.262,112.404 366.5,110.5C 369.742,106.733 373.742,105.733 378.5,107.5 Z M 376.5,122.5 C 374.379,122.675 372.379,122.341 370.5,121.5C 370.928,115.884 373.761,113.551 379,114.5C 379.982,117.775 379.149,120.441 376.5,122.5 Z"/></g>
<g><path style="opacity:0.008" fill="#c6d7cf" d="M 382.5,109.5 C 383.833,109.5 384.5,110.167 384.5,111.5C 383.5,111.167 382.833,110.5 382.5,109.5 Z"/></g>
<g><path style="opacity:0.365" fill="#bccfc7" d="M 200.5,107.5 C 200.46,110.881 200.793,114.214 201.5,117.5C 200.028,115.883 199.361,113.883 199.5,111.5C 199.511,109.955 199.844,108.622 200.5,107.5 Z"/></g>
<g><path style="opacity:0.431" fill="#adc5ba" d="M 351.5,108.5 C 351.5,109.5 351.5,110.5 351.5,111.5C 349.265,111.795 347.265,111.461 345.5,110.5C 345.833,110.5 346.167,110.5 346.5,110.5C 348.554,110.635 350.221,109.968 351.5,108.5 Z"/></g>
<g><path style="opacity:0.063" fill="#d0ddd7" d="M 216.5,108.5 C 216.771,110.38 216.104,111.713 214.5,112.5C 214.66,110.847 215.326,109.514 216.5,108.5 Z"/></g>
<g><path style="opacity:0.643" fill="#a2beb0" d="M 221.5,116.5 C 222.234,112.56 220.901,111.227 217.5,112.5C 217.511,110.314 218.511,109.481 220.5,110C 223.914,111.914 224.247,114.081 221.5,116.5 Z"/></g>
<g><path style="opacity:0.706" fill="#82a694" d="M 366.5,110.5 C 366.262,112.404 365.262,113.738 363.5,114.5C 363.738,112.596 364.738,111.262 366.5,110.5 Z"/></g>
<g><path style="opacity:0.4" fill="#a1bdaf" d="M 384.5,111.5 C 385.906,111.973 386.573,112.973 386.5,114.5C 385.094,114.027 384.427,113.027 384.5,111.5 Z"/></g>
<g><path style="opacity:0.624" fill="#96b4a6" d="M 217.5,112.5 C 217.5,114.5 216.5,115.5 214.5,115.5C 215.167,114.167 216.167,113.167 217.5,112.5 Z"/></g>
<g><path style="opacity:0.02" fill="#d9e4df" d="M 212.5,114.5 C 212.842,115.338 213.508,115.672 214.5,115.5C 213.292,116.782 211.958,116.782 210.5,115.5C 210.957,114.702 211.624,114.369 212.5,114.5 Z"/></g>
<g><path style="opacity:0.506" fill="#b9cec4" d="M 202.5,119.5 C 204.027,119.427 205.027,120.094 205.5,121.5C 203.973,121.573 202.973,120.906 202.5,119.5 Z"/></g>
<g><path style="opacity:0.055" fill="#c0d3ca" d="M 370.5,121.5 C 372.379,122.341 374.379,122.675 376.5,122.5C 375.726,123.147 374.726,123.48 373.5,123.5C 371.97,123.36 370.97,122.693 370.5,121.5 Z"/></g>
<g><path style="opacity:0.259" fill="#b6ccc1" d="M 185.5,124.5 C 183.435,124.517 181.435,124.85 179.5,125.5C 180.134,124.053 181.301,123.387 183,123.5C 184.07,123.528 184.903,123.861 185.5,124.5 Z"/></g>
<g><path style="opacity:0.392" fill="#b0c7bc" d="M 170.5,128.5 C 169.036,127.595 167.702,127.595 166.5,128.5C 167.702,127.595 169.036,127.595 170.5,128.5 Z"/></g>
<g><path style="opacity:0.49" fill="#94b3a4" d="M 179.5,125.5 C 179.573,127.027 178.906,128.027 177.5,128.5C 177.427,126.973 178.094,125.973 179.5,125.5 Z"/></g>
<g><path style="opacity:0.833" fill="#7ca18e" d="M 383.5,126.5 C 379.597,130.566 375.264,131.233 370.5,128.5C 374.969,128.542 379.302,127.875 383.5,126.5 Z"/></g>
<g><path style="opacity:0.999" fill="#225f41" d="M 185.5,124.5 C 187.754,125.415 189.754,126.748 191.5,128.5C 191.5,130.5 192.5,131.5 194.5,131.5C 195.5,131.833 196.167,132.5 196.5,133.5C 197.234,134.708 197.567,136.041 197.5,137.5C 197.443,138.609 197.11,139.609 196.5,140.5C 195.833,140.833 195.167,141.167 194.5,141.5C 193.415,139.413 191.749,138.08 189.5,137.5C 187.463,135.47 185.13,133.804 182.5,132.5C 179.962,134.74 179.962,137.073 182.5,139.5C 182.973,140.906 183.973,141.573 185.5,141.5C 186.5,141.833 187.167,142.5 187.5,143.5C 189.161,147.18 188.494,150.18 185.5,152.5C 184.5,152.167 183.833,151.5 183.5,150.5C 182.738,148.738 181.404,147.738 179.5,147.5C 178.5,147.167 177.833,146.5 177.5,145.5C 176.415,143.413 174.749,142.08 172.5,141.5C 171.5,141.167 170.833,140.5 170.5,139.5C 169.415,137.413 167.749,136.08 165.5,135.5C 164.89,134.609 164.557,133.609 164.5,132.5C 164.989,131.005 165.655,129.671 166.5,128.5C 167.702,127.595 169.036,127.595 170.5,128.5C 172.167,129.5 173.5,130.833 174.5,132.5C 175.189,133.774 176.023,133.774 177,132.5C 177.49,131.207 177.657,129.873 177.5,128.5C 178.906,128.027 179.573,127.027 179.5,125.5C 181.435,124.85 183.435,124.517 185.5,124.5 Z"/></g>
<g><path style="opacity:0.537" fill="#b4cac0" d="M 191.5,128.5 C 192.833,129.167 193.833,130.167 194.5,131.5C 192.5,131.5 191.5,130.5 191.5,128.5 Z"/></g>
<g><path style="opacity:0.137" fill="#c8dcd9" d="M 298.5,131.5 C 302.122,131.322 305.456,131.989 308.5,133.5C 304.922,133.451 301.589,132.785 298.5,131.5 Z"/></g>
<g><path style="opacity:0.114" fill="#b5cac0" d="M 177.5,128.5 C 177.657,129.873 177.49,131.207 177,132.5C 176.023,133.774 175.189,133.774 174.5,132.5C 175.5,131.167 176.5,129.833 177.5,128.5 Z"/></g>
<g><path style="opacity:0.675" fill="#afccc7" d="M 276.5,131.5 C 273.781,132.913 270.781,133.58 267.5,133.5C 270.219,132.087 273.219,131.42 276.5,131.5 Z"/></g>
<g><path style="opacity:0.063" fill="#e9efec" d="M 164.5,132.5 C 164.557,133.609 164.89,134.609 165.5,135.5C 163.448,134.947 163.115,133.947 164.5,132.5 Z"/></g>
<g><path style="opacity:1" fill="#3c8479" d="M 298.5,131.5 C 301.589,132.785 304.922,133.451 308.5,133.5C 308.833,133.5 309.167,133.5 309.5,133.5C 311.102,135.074 313.102,135.741 315.5,135.5C 330.355,140.095 342.688,148.428 352.5,160.5C 352.738,162.404 353.738,163.738 355.5,164.5C 356.458,164.953 357.292,165.619 358,166.5C 360.372,169.91 362.205,173.577 363.5,177.5C 363.427,179.027 364.094,180.027 365.5,180.5C 368.881,186.653 370.881,193.319 371.5,200.5C 371.695,212.19 371.361,223.856 370.5,235.5C 368.723,238.505 367.723,241.838 367.5,245.5C 367.672,246.492 367.338,247.158 366.5,247.5C 365.069,248.78 364.402,250.447 364.5,252.5C 361.308,260.225 356.641,266.891 350.5,272.5C 349.094,272.973 348.427,273.973 348.5,275.5C 347.127,275.343 345.793,275.51 344.5,276C 345.598,276.77 345.598,277.603 344.5,278.5C 341.936,282.117 338.603,284.784 334.5,286.5C 332.973,286.427 331.973,287.094 331.5,288.5C 329.819,290.008 327.819,291.008 325.5,291.5C 321.848,291.513 318.848,292.847 316.5,295.5C 311.204,297.933 305.538,299.433 299.5,300C 291.421,300.8 283.421,300.633 275.5,299.5C 272.781,298.087 269.781,297.42 266.5,297.5C 264.485,296.076 262.152,295.41 259.5,295.5C 248.537,292.359 239.204,286.693 231.5,278.5C 229.833,276.167 227.833,274.167 225.5,272.5C 223.833,271.5 222.5,270.167 221.5,268.5C 221.446,266.368 220.446,265.035 218.5,264.5C 215.377,261.024 213.043,257.024 211.5,252.5C 211.598,250.447 210.931,248.78 209.5,247.5C 208.662,247.158 208.328,246.492 208.5,245.5C 206.963,238.358 205.297,231.358 203.5,224.5C 203.5,224.167 203.5,223.833 203.5,223.5C 203.523,215.817 203.857,208.15 204.5,200.5C 204.232,198.901 204.566,197.568 205.5,196.5C 207.04,194.162 207.706,191.495 207.5,188.5C 210.297,179.565 214.631,171.565 220.5,164.5C 222.587,163.415 223.92,161.749 224.5,159.5C 225.5,157.833 226.833,156.5 228.5,155.5C 231.764,153.906 234.431,151.573 236.5,148.5C 238.951,145.723 241.951,143.723 245.5,142.5C 247.848,142.408 249.514,141.408 250.5,139.5C 251.93,138.463 253.597,137.796 255.5,137.5C 259.767,136.744 263.767,135.411 267.5,133.5C 270.781,133.58 273.781,132.913 276.5,131.5C 283.846,130.204 291.18,130.204 298.5,131.5 Z M 294.5,157.5 C 295.514,158.674 296.847,159.34 298.5,159.5C 299.833,161.5 301.5,163.167 303.5,164.5C 306.198,169.787 307.198,175.454 306.5,181.5C 305.508,183.456 304.508,185.456 303.5,187.5C 302.883,187.611 302.383,187.944 302,188.5C 301.503,191.146 301.336,193.813 301.5,196.5C 300.188,197.145 299.188,198.145 298.5,199.5C 299.062,205.693 300.062,211.693 301.5,217.5C 301.232,219.099 301.566,220.432 302.5,221.5C 302.031,224.393 303.031,226.393 305.5,227.5C 306.496,231.829 309.163,234.496 313.5,235.5C 315.529,237.858 317.529,240.192 319.5,242.5C 320.051,245.807 320.384,249.14 320.5,252.5C 319.167,255.167 319.167,257.833 320.5,260.5C 321.833,265.167 321.833,269.833 320.5,274.5C 298.425,274.822 276.425,274.489 254.5,273.5C 254.126,267.622 254.792,261.955 256.5,256.5C 256.489,254.955 256.156,253.622 255.5,252.5C 255.616,249.14 255.949,245.807 256.5,242.5C 258.137,240.525 259.804,238.525 261.5,236.5C 263.781,235.392 265.948,234.058 268,232.5C 269.38,229.656 270.88,226.99 272.5,224.5C 273.924,222.485 274.59,220.152 274.5,217.5C 275.989,213.764 276.656,209.764 276.5,205.5C 276.664,202.813 276.497,200.146 276,197.5C 275.617,196.944 275.117,196.611 274.5,196.5C 274.664,193.813 274.497,191.146 274,188.5C 273.617,187.944 273.117,187.611 272.5,187.5C 271.492,185.456 270.492,183.456 269.5,181.5C 268.802,175.454 269.802,169.787 272.5,164.5C 278.441,157.847 285.774,155.514 294.5,157.5 Z"/></g>
<g><path style="opacity:0.737" fill="#99b6a8" d="M 403.5,134.5 C 402.167,134.5 400.833,134.5 399.5,134.5C 401.032,132.219 402.366,132.219 403.5,134.5 Z"/></g>
<g><path style="opacity:0.718" fill="#97beb7" d="M 267.5,133.5 C 263.767,135.411 259.767,136.744 255.5,137.5C 259.085,135.194 263.085,133.861 267.5,133.5 Z"/></g>
<g><path style="opacity:0.51" fill="#b4cfcb" d="M 309.5,133.5 C 311.786,133.595 313.786,134.262 315.5,135.5C 313.102,135.741 311.102,135.074 309.5,133.5 Z"/></g>
<g><path style="opacity:1" fill="#2a6446" d="M 399.5,134.5 C 400.833,134.5 402.167,134.5 403.5,134.5C 404.5,134.833 405.167,135.5 405.5,136.5C 405.592,138.848 406.592,140.514 408.5,141.5C 409.492,141.328 410.158,141.662 410.5,142.5C 410.414,143.496 410.748,144.329 411.5,145C 410.584,145.278 409.918,145.778 409.5,146.5C 407.21,147.867 405.544,147.2 404.5,144.5C 402.5,141.833 400.5,141.833 398.5,144.5C 396.819,146.008 394.819,147.008 392.5,147.5C 390.784,147.371 389.117,147.038 387.5,146.5C 387.027,145.094 386.027,144.427 384.5,144.5C 383.957,144.44 383.624,144.107 383.5,143.5C 384.577,142.295 385.91,141.628 387.5,141.5C 389.027,141.573 390.027,140.906 390.5,139.5C 391.514,138.326 392.847,137.66 394.5,137.5C 396.027,137.573 397.027,136.906 397.5,135.5C 397.842,134.662 398.508,134.328 399.5,134.5 Z"/></g>
<g><path style="opacity:0.737" fill="#9cb9ab" d="M 165.5,135.5 C 167.749,136.08 169.415,137.413 170.5,139.5C 168.251,138.92 166.585,137.587 165.5,135.5 Z"/></g>
<g><path style="opacity:0.263" fill="#ceddd6" d="M 196.5,133.5 C 197.586,133.62 198.253,134.287 198.5,135.5C 198.457,136.416 198.124,137.083 197.5,137.5C 197.567,136.041 197.234,134.708 196.5,133.5 Z"/></g>
<g><path style="opacity:0.6" fill="#a4bfb2" d="M 397.5,135.5 C 397.027,136.906 396.027,137.573 394.5,137.5C 394.973,136.094 395.973,135.427 397.5,135.5 Z"/></g>
<g><path style="opacity:0.694" fill="#a4bfb2" d="M 189.5,137.5 C 191.749,138.08 193.415,139.413 194.5,141.5C 192.251,140.92 190.585,139.587 189.5,137.5 Z"/></g>
<g><path style="opacity:0.953" fill="#89ab9a" d="M 405.5,136.5 C 406.643,136.908 407.643,137.575 408.5,138.5C 407.209,139.527 407.209,140.527 408.5,141.5C 406.592,140.514 405.592,138.848 405.5,136.5 Z"/></g>
<g><path style="opacity:0.016" fill="#c8d8d1" d="M 182.5,139.5 C 184.027,139.427 185.027,140.094 185.5,141.5C 183.973,141.573 182.973,140.906 182.5,139.5 Z"/></g>
<g><path style="opacity:0.655" fill="#96b5a6" d="M 390.5,139.5 C 390.027,140.906 389.027,141.573 387.5,141.5C 387.973,140.094 388.973,139.427 390.5,139.5 Z"/></g>
<g><path style="opacity:0.718" fill="#a2beb1" d="M 172.5,141.5 C 174.749,142.08 176.415,143.413 177.5,145.5C 175.251,144.92 173.585,143.587 172.5,141.5 Z"/></g>
<g><path style="opacity:0.024" fill="#e0eae5" d="M 196.5,140.5 C 196.289,142.424 195.623,142.757 194.5,141.5C 195.167,141.167 195.833,140.833 196.5,140.5 Z"/></g>
<g><path style="opacity:0.627" fill="#a0c2bd" d="M 250.5,139.5 C 249.514,141.408 247.848,142.408 245.5,142.5C 246.659,140.75 248.326,139.75 250.5,139.5 Z"/></g>
<g><path style="opacity:0.486" fill="#98b6a8" d="M 404.5,144.5 C 402.5,143.167 400.5,143.167 398.5,144.5C 400.5,141.833 402.5,141.833 404.5,144.5 Z"/></g>
<g><path style="opacity:0.314" fill="#b7ccc2" d="M 410.5,142.5 C 412.104,143.287 412.771,144.62 412.5,146.5C 411.5,146.5 410.5,146.5 409.5,146.5C 409.918,145.778 410.584,145.278 411.5,145C 410.748,144.329 410.414,143.496 410.5,142.5 Z"/></g>
<g><path style="opacity:0.541" fill="#91b1a1" d="M 384.5,144.5 C 386.027,144.427 387.027,145.094 387.5,146.5C 385.973,146.573 384.973,145.906 384.5,144.5 Z"/></g>
<g><path style="opacity:0.682" fill="#a4beb1" d="M 179.5,147.5 C 181.404,147.738 182.738,148.738 183.5,150.5C 181.596,150.262 180.262,149.262 179.5,147.5 Z"/></g>
<g><path style="opacity:0.686" fill="#95b3a5" d="M 387.5,146.5 C 389.117,147.038 390.784,147.371 392.5,147.5C 390.543,150.059 388.877,149.726 387.5,146.5 Z"/></g>
<g><path style="opacity:0.51" fill="#9fbbad" d="M 187.5,143.5 C 188.812,144.145 189.812,145.145 190.5,146.5C 189.423,148.729 188.756,151.063 188.5,153.5C 187.209,153.737 186.209,153.404 185.5,152.5C 188.494,150.18 189.161,147.18 187.5,143.5 Z"/></g>
<g><path style="opacity:0.757" fill="#91b9b3" d="M 236.5,148.5 C 234.431,151.573 231.764,153.906 228.5,155.5C 230.569,152.427 233.236,150.094 236.5,148.5 Z"/></g>
<g><path style="opacity:0.592" fill="#abc4b8" d="M 157.5,154.5 C 155.589,155.075 153.922,156.075 152.5,157.5C 153.098,154.179 154.765,153.179 157.5,154.5 Z"/></g>
<g><path style="opacity:1" fill="#266143" d="M 157.5,154.5 C 158.959,154.433 160.292,154.766 161.5,155.5C 161.5,156.5 161.5,157.5 161.5,158.5C 161.158,159.338 160.492,159.672 159.5,159.5C 156.206,161.956 155.873,164.623 158.5,167.5C 159.984,169.074 161.651,170.407 163.5,171.5C 165.628,172.629 167.961,172.796 170.5,172C 172.107,170.951 172.773,169.451 172.5,167.5C 172.5,167.167 172.5,166.833 172.5,166.5C 173.022,164.781 174.022,163.448 175.5,162.5C 176.609,162.557 177.609,162.89 178.5,163.5C 178.54,166.881 178.207,170.214 177.5,173.5C 177.573,175.027 176.906,176.027 175.5,176.5C 174.5,176.833 173.833,177.5 173.5,178.5C 168.786,182.044 163.786,182.378 158.5,179.5C 157.738,177.738 156.404,176.738 154.5,176.5C 152.738,175.738 151.738,174.404 151.5,172.5C 150.756,168.881 150.423,165.215 150.5,161.5C 150.66,159.847 151.326,158.514 152.5,157.5C 153.922,156.075 155.589,155.075 157.5,154.5 Z"/></g>
<g><path style="opacity:0.525" fill="#bacec5" d="M 161.5,155.5 C 164.167,156.5 164.167,157.5 161.5,158.5C 161.5,157.5 161.5,156.5 161.5,155.5 Z"/></g>
<g><path style="opacity:0.995" fill="#82afa7" d="M 294.5,157.5 C 285.774,155.514 278.441,157.847 272.5,164.5C 272.586,163.504 272.252,162.671 271.5,162C 274.317,159.766 277.151,157.599 280,155.5C 283.72,155.658 287.554,155.825 291.5,156C 292.737,156.232 293.737,156.732 294.5,157.5 Z"/></g>
<g><path style="opacity:0.706" fill="#b8d2ce" d="M 298.5,159.5 C 301.167,160.167 302.833,161.833 303.5,164.5C 301.5,163.167 299.833,161.5 298.5,159.5 Z"/></g>
<g><path style="opacity:0.627" fill="#b6d1cc" d="M 352.5,160.5 C 354.262,161.262 355.262,162.596 355.5,164.5C 353.738,163.738 352.738,162.404 352.5,160.5 Z"/></g>
<g><path style="opacity:0.502" fill="#b5d0cc" d="M 224.5,159.5 C 223.92,161.749 222.587,163.415 220.5,164.5C 221.08,162.251 222.413,160.585 224.5,159.5 Z"/></g>
<g><path style="opacity:0.78" fill="#afccc7" d="M 291.5,162.5 C 288.482,162.704 285.482,163.037 282.5,163.5C 283.946,162.06 285.779,161.393 288,161.5C 289.385,161.514 290.551,161.848 291.5,162.5 Z"/></g>
<g><path style="opacity:1" fill="#2f684a" d="M 420.5,165.5 C 420.427,167.027 421.094,168.027 422.5,168.5C 424.375,170.594 424.708,172.928 423.5,175.5C 422.094,175.973 421.427,176.973 421.5,178.5C 415.005,181.759 410.672,179.759 408.5,172.5C 407.528,171.249 406.861,171.582 406.5,173.5C 406.543,174.416 406.876,175.083 407.5,175.5C 407.5,175.833 407.5,176.167 407.5,176.5C 407.427,178.027 408.094,179.027 409.5,179.5C 410.167,179.5 410.5,179.833 410.5,180.5C 410.167,181.167 409.833,181.833 409.5,182.5C 405.153,183.401 402.32,181.401 401,176.5C 400.199,173.633 400.366,170.966 401.5,168.5C 402.906,168.027 403.573,167.027 403.5,165.5C 403.5,164.833 403.833,164.5 404.5,164.5C 406.027,164.573 407.027,163.906 407.5,162.5C 410.304,161.362 413.304,161.195 416.5,162C 418.324,162.66 419.657,163.827 420.5,165.5 Z M 413.5,170.5 C 413.842,169.662 414.508,169.328 415.5,169.5C 416.6,170.605 417.267,171.938 417.5,173.5C 416.167,172.5 414.833,171.5 413.5,170.5 Z"/></g>
<g><path style="opacity:0.627" fill="#92b2a3" d="M 159.5,159.5 C 157.843,162.089 157.509,164.756 158.5,167.5C 155.873,164.623 156.206,161.956 159.5,159.5 Z"/></g>
<g><path style="opacity:0.529" fill="#96b5a6" d="M 175.5,162.5 C 174.022,163.448 173.022,164.781 172.5,166.5C 172.5,164.833 172.5,163.167 172.5,161.5C 173.791,161.263 174.791,161.596 175.5,162.5 Z"/></g>
<g><path style="opacity:0.71" fill="#92b1a2" d="M 407.5,162.5 C 407.027,163.906 406.027,164.573 404.5,164.5C 404.973,163.094 405.973,162.427 407.5,162.5 Z"/></g>
<g><path style="opacity:0.282" fill="#c5d6ce" d="M 150.5,161.5 C 150.423,165.215 150.756,168.881 151.5,172.5C 150.003,170.71 149.336,168.544 149.5,166C 149.508,164.293 149.842,162.793 150.5,161.5 Z"/></g>
<g><path style="opacity:0.999" fill="#3e867b" d="M 291.5,162.5 C 293.784,162.975 295.784,163.975 297.5,165.5C 297.427,167.027 298.094,168.027 299.5,168.5C 300.2,172.798 300.533,177.131 300.5,181.5C 298.402,185.434 295.402,188.6 291.5,191C 292.252,191.671 292.586,192.504 292.5,193.5C 293.109,197.605 293.775,201.605 294.5,205.5C 295.167,210.833 295.833,216.167 296.5,221.5C 296.528,224.916 297.528,227.916 299.5,230.5C 300.338,230.842 300.672,231.508 300.5,232.5C 300.932,233.71 301.599,234.71 302.5,235.5C 308.057,237.064 312.057,240.397 314.5,245.5C 314.702,247.95 314.369,250.283 313.5,252.5C 313.5,254.167 313.5,255.833 313.5,257.5C 313.247,261.415 313.913,265.081 315.5,268.5C 297.167,268.5 278.833,268.5 260.5,268.5C 262.087,265.081 262.753,261.415 262.5,257.5C 262.5,255.833 262.5,254.167 262.5,252.5C 261.631,250.283 261.298,247.95 261.5,245.5C 263.638,240.701 267.305,237.701 272.5,236.5C 274.201,235.789 275.201,234.455 275.5,232.5C 277.968,229.447 279.301,225.78 279.5,221.5C 280.734,212.202 281.734,202.869 282.5,193.5C 283.5,193.167 284.167,192.5 284.5,191.5C 280.772,188.775 277.772,185.441 275.5,181.5C 275.467,177.131 275.8,172.798 276.5,168.5C 277.833,167.833 278.833,166.833 279.5,165.5C 279.973,164.094 280.973,163.427 282.5,163.5C 285.482,163.037 288.482,162.704 291.5,162.5 Z"/></g>
<g><path style="opacity:0.416" fill="#b2c9be" d="M 178.5,163.5 C 179.156,164.622 179.489,165.955 179.5,167.5C 179.639,169.883 178.972,171.883 177.5,173.5C 178.207,170.214 178.54,166.881 178.5,163.5 Z"/></g>
<g><path style="opacity:0.51" fill="#c2d9d5" d="M 297.5,165.5 C 298.906,165.973 299.573,166.973 299.5,168.5C 298.094,168.027 297.427,167.027 297.5,165.5 Z"/></g>
<g><path style="opacity:0.353" fill="#bfd7d3" d="M 279.5,165.5 C 278.833,166.833 277.833,167.833 276.5,168.5C 276.5,166.5 277.5,165.5 279.5,165.5 Z"/></g>
<g><path style="opacity:0.522" fill="#8cad9e" d="M 403.5,165.5 C 403.573,167.027 402.906,168.027 401.5,168.5C 401.427,166.973 402.094,165.973 403.5,165.5 Z"/></g>
<g><path style="opacity:0.549" fill="#8aac9c" d="M 420.5,165.5 C 421.906,165.973 422.573,166.973 422.5,168.5C 421.094,168.027 420.427,167.027 420.5,165.5 Z"/></g>
<g><path style="opacity:0.396" fill="#99b6a9" d="M 415.5,169.5 C 414.508,169.328 413.842,169.662 413.5,170.5C 412.115,169.698 412.282,169.031 414,168.5C 414.765,168.57 415.265,168.903 415.5,169.5 Z"/></g>
<g><path style="opacity:1" fill="#709884" d="M 172.5,167.5 C 172.773,169.451 172.107,170.951 170.5,172C 167.961,172.796 165.628,172.629 163.5,171.5C 167.621,172.342 170.621,171.009 172.5,167.5 Z"/></g>
<g><path style="opacity:0.651" fill="#a6c0b4" d="M 413.5,170.5 C 414.833,171.5 416.167,172.5 417.5,173.5C 415.275,174.332 413.942,173.332 413.5,170.5 Z"/></g>
<g><path style="opacity:0.333" fill="#a9c2b7" d="M 415.5,169.5 C 418.309,169.958 418.976,171.291 417.5,173.5C 417.267,171.938 416.6,170.605 415.5,169.5 Z"/></g>
<g><path style="opacity:0.133" fill="#cddcd5" d="M 408.5,172.5 C 407.596,173.209 407.263,174.209 407.5,175.5C 406.876,175.083 406.543,174.416 406.5,173.5C 406.861,171.582 407.528,171.249 408.5,172.5 Z"/></g>
<g><path style="opacity:0.69" fill="#97bdb7" d="M 276.5,168.5 C 275.8,172.798 275.467,177.131 275.5,181.5C 272.796,176.992 273.129,172.658 276.5,168.5 Z"/></g>
<g><path style="opacity:0.694" fill="#98bdb7" d="M 299.5,168.5 C 302.871,172.658 303.204,176.992 300.5,181.5C 300.533,177.131 300.2,172.798 299.5,168.5 Z"/></g>
<g><path style="opacity:0.8" fill="#92b2a3" d="M 154.5,176.5 C 156.404,176.738 157.738,177.738 158.5,179.5C 156.596,179.262 155.262,178.262 154.5,176.5 Z"/></g>
<g><path style="opacity:0.004" fill="#d1dfd8" d="M 175.5,176.5 C 175.5,177.833 174.833,178.5 173.5,178.5C 173.833,177.5 174.5,176.833 175.5,176.5 Z"/></g>
<g><path style="opacity:0.078" fill="#cfddd7" d="M 423.5,175.5 C 423.573,177.027 422.906,178.027 421.5,178.5C 421.427,176.973 422.094,175.973 423.5,175.5 Z"/></g>
<g><path style="opacity:0.412" fill="#acc3b8" d="M 407.5,176.5 C 408.906,176.973 409.573,177.973 409.5,179.5C 408.094,179.027 407.427,178.027 407.5,176.5 Z"/></g>
<g><path style="opacity:0.2" fill="#cadedb" d="M 363.5,177.5 C 364.906,177.973 365.573,178.973 365.5,180.5C 364.094,180.027 363.427,179.027 363.5,177.5 Z"/></g>
<g><path style="opacity:0.133" fill="#bcd0c7" d="M 410.5,180.5 C 411.757,181.623 411.424,182.289 409.5,182.5C 409.833,181.833 410.167,181.167 410.5,180.5 Z"/></g>
<g><path style="opacity:0.851" fill="#a6c7c1" d="M 269.5,181.5 C 270.492,183.456 271.492,185.456 272.5,187.5C 270.025,186.313 269.025,184.313 269.5,181.5 Z"/></g>
<g><path style="opacity:0.843" fill="#a6c6c1" d="M 306.5,181.5 C 306.975,184.313 305.975,186.313 303.5,187.5C 304.508,185.456 305.508,183.456 306.5,181.5 Z"/></g>
<g><path style="opacity:0.506" fill="#94bcb6" d="M 272.5,187.5 C 273.117,187.611 273.617,187.944 274,188.5C 274.497,191.146 274.664,193.813 274.5,196.5C 273.656,193.655 272.99,190.655 272.5,187.5 Z"/></g>
<g><path style="opacity:0.511" fill="#94bcb6" d="M 303.5,187.5 C 303.01,190.655 302.344,193.655 301.5,196.5C 301.336,193.813 301.503,191.146 302,188.5C 302.383,187.944 302.883,187.611 303.5,187.5 Z"/></g>
<g><path style="opacity:0.824" fill="#9fc2bc" d="M 207.5,188.5 C 207.706,191.495 207.04,194.162 205.5,196.5C 205.565,193.572 206.232,190.905 207.5,188.5 Z"/></g>
<g><path style="opacity:0.059" fill="#e8f1f0" d="M 292.5,193.5 C 294.423,197.029 295.089,201.029 294.5,205.5C 293.775,201.605 293.109,197.605 292.5,193.5 Z"/></g>
<g><path style="opacity:0.839" fill="#99b7a8" d="M 159.5,214.5 C 155.759,213.599 153.759,214.932 153.5,218.5C 151.719,215.107 152.886,213.107 157,212.5C 158.301,212.639 159.134,213.305 159.5,214.5 Z"/></g>
<g><path style="opacity:0.082" fill="#e0ebea" d="M 204.5,200.5 C 203.857,208.15 203.523,215.817 203.5,223.5C 202.128,215.777 202.461,208.111 204.5,200.5 Z"/></g>
<g><path style="opacity:0.369" fill="#b9d3cf" d="M 276.5,205.5 C 276.656,209.764 275.989,213.764 274.5,217.5C 274.344,213.236 275.011,209.236 276.5,205.5 Z"/></g>
<g><path style="opacity:0.376" fill="#aac9c4" d="M 301.5,196.5 C 300.439,203.467 300.439,210.467 301.5,217.5C 300.062,211.693 299.062,205.693 298.5,199.5C 299.188,198.145 300.188,197.145 301.5,196.5 Z"/></g>
<g><path style="opacity:0.749" fill="#89ab9b" d="M 423.5,219.5 C 423.5,217.833 423.5,216.167 423.5,214.5C 421.833,214.5 420.167,214.5 418.5,214.5C 421.746,211.764 424.08,212.597 425.5,217C 425.361,218.301 424.695,219.134 423.5,219.5 Z"/></g>
<g><path style="opacity:1" fill="#256142" d="M 159.5,214.5 C 160.833,216.167 160.833,217.833 159.5,219.5C 157.379,219.675 155.379,219.341 153.5,218.5C 153.759,214.932 155.759,213.599 159.5,214.5 Z"/></g>
<g><path style="opacity:0.855" fill="#a1c3bd" d="M 371.5,200.5 C 374.317,212.244 373.984,223.911 370.5,235.5C 371.361,223.856 371.695,212.19 371.5,200.5 Z"/></g>
<g><path style="opacity:1" fill="#0c5332" d="M 418.5,214.5 C 420.167,214.5 421.833,214.5 423.5,214.5C 423.5,216.167 423.5,217.833 423.5,219.5C 421.833,219.5 420.167,219.5 418.5,219.5C 418.5,217.833 418.5,216.167 418.5,214.5 Z"/></g>
<g><path style="opacity:0.686" fill="#91b1a2" d="M 418.5,214.5 C 418.5,216.167 418.5,217.833 418.5,219.5C 415.833,217.833 415.833,216.167 418.5,214.5 Z"/></g>
<g><path style="opacity:0.765" fill="#98b6a7" d="M 153.5,218.5 C 155.379,219.341 157.379,219.675 159.5,219.5C 157.013,222.261 155.013,221.927 153.5,218.5 Z"/></g>
<g><path style="opacity:0.694" fill="#92b1a2" d="M 418.5,219.5 C 420.167,219.5 421.833,219.5 423.5,219.5C 421.833,222.167 420.167,222.167 418.5,219.5 Z"/></g>
<g><path style="opacity:0.722" fill="#a3c4bf" d="M 279.5,221.5 C 279.301,225.78 277.968,229.447 275.5,232.5C 276.462,228.605 277.796,224.939 279.5,221.5 Z"/></g>
<g><path style="opacity:0.729" fill="#accbc6" d="M 296.5,221.5 C 298.072,224.215 299.072,227.215 299.5,230.5C 297.528,227.916 296.528,224.916 296.5,221.5 Z"/></g>
<g><path style="opacity:0.314" fill="#c2d8d5" d="M 302.5,221.5 C 303.486,223.426 304.486,225.426 305.5,227.5C 303.031,226.393 302.031,224.393 302.5,221.5 Z"/></g>
<g><path style="opacity:1" fill="#78a9a1" d="M 305.5,227.5 C 307.912,227.694 308.912,229.027 308.5,231.5C 310.981,231.774 312.647,233.107 313.5,235.5C 309.163,234.496 306.496,231.829 305.5,227.5 Z"/></g>
<g><path style="opacity:0.263" fill="#c2d9d5" d="M 203.5,224.5 C 205.297,231.358 206.963,238.358 208.5,245.5C 205.451,238.939 203.784,231.939 203.5,224.5 Z"/></g>
<g><path style="opacity:0.99" fill="#7caba3" d="M 272.5,224.5 C 270.88,226.99 269.38,229.656 268,232.5C 265.948,234.058 263.781,235.392 261.5,236.5C 261.808,232.991 263.808,231.324 267.5,231.5C 268.002,228.331 269.669,225.998 272.5,224.5 Z"/></g>
<g><path style="opacity:0.051" fill="#d1e2df" d="M 300.5,232.5 C 302.048,232.821 302.715,233.821 302.5,235.5C 301.599,234.71 300.932,233.71 300.5,232.5 Z"/></g>
<g><path style="opacity:0.212" fill="#bbd4d0" d="M 275.5,232.5 C 275.201,234.455 274.201,235.789 272.5,236.5C 272.799,234.545 273.799,233.211 275.5,232.5 Z"/></g>
<g><path style="opacity:0.012" fill="#d0e1de" d="M 370.5,235.5 C 370.277,239.162 369.277,242.495 367.5,245.5C 367.723,241.838 368.723,238.505 370.5,235.5 Z"/></g>
<g><path style="opacity:0.404" fill="#b0cdc9" d="M 256.5,242.5 C 255.949,245.807 255.616,249.14 255.5,252.5C 254.844,251.378 254.511,250.045 254.5,248.5C 254.361,246.117 255.028,244.117 256.5,242.5 Z"/></g>
<g><path style="opacity:0.412" fill="#adcbc7" d="M 319.5,242.5 C 320.972,244.117 321.639,246.117 321.5,248.5C 321.489,250.045 321.156,251.378 320.5,252.5C 320.384,249.14 320.051,245.807 319.5,242.5 Z"/></g>
<g><path style="opacity:0.355" fill="#c4dad7" d="M 261.5,245.5 C 261.298,247.95 261.631,250.283 262.5,252.5C 261.275,251.848 260.608,250.681 260.5,249C 260.514,247.615 260.848,246.449 261.5,245.5 Z"/></g>
<g><path style="opacity:0.337" fill="#c7dcd9" d="M 314.5,245.5 C 315.152,246.449 315.486,247.615 315.5,249C 315.392,250.681 314.725,251.848 313.5,252.5C 314.369,250.283 314.702,247.95 314.5,245.5 Z"/></g>
<g><path style="opacity:0.286" fill="#c4dad6" d="M 209.5,247.5 C 210.931,248.78 211.598,250.447 211.5,252.5C 210.069,251.22 209.402,249.553 209.5,247.5 Z"/></g>
<g><path style="opacity:0.286" fill="#c4dad7" d="M 366.5,247.5 C 366.598,249.553 365.931,251.22 364.5,252.5C 364.402,250.447 365.069,248.78 366.5,247.5 Z"/></g>
<g><path style="opacity:0.451" fill="#a6c0b3" d="M 173.5,252.5 C 169.466,252.505 165.466,252.838 161.5,253.5C 163.462,251.983 165.795,251.316 168.5,251.5C 170.369,251.507 172.036,251.84 173.5,252.5 Z"/></g>
<g><path style="opacity:0.614" fill="#9ab8aa" d="M 415.5,252.5 C 412.43,252.368 409.43,252.701 406.5,253.5C 406.611,252.883 406.944,252.383 407.5,252C 410.367,251.199 413.034,251.366 415.5,252.5 Z"/></g>
<g><path style="opacity:1" fill="#225f40" d="M 173.5,252.5 C 174.791,252.263 175.791,252.596 176.5,253.5C 177.785,255.452 179.451,257.118 181.5,258.5C 181.427,260.027 182.094,261.027 183.5,261.5C 183.5,261.833 183.5,262.167 183.5,262.5C 183.909,265.855 183.242,268.855 181.5,271.5C 181.158,272.338 180.492,272.672 179.5,272.5C 177.902,270.143 176.902,267.477 176.5,264.5C 176.5,262.5 175.5,261.5 173.5,261.5C 172.551,260.848 171.385,260.514 170,260.5C 167.779,260.393 165.946,261.06 164.5,262.5C 164.167,263.5 163.5,264.167 162.5,264.5C 160.403,265.879 160.07,267.545 161.5,269.5C 162.737,270.965 163.737,272.632 164.5,274.5C 163.833,275.167 163.167,275.833 162.5,276.5C 160.435,276.483 158.435,276.15 156.5,275.5C 152.429,270.844 151.763,265.844 154.5,260.5C 156.262,259.738 157.262,258.404 157.5,256.5C 159.404,256.262 160.738,255.262 161.5,253.5C 165.466,252.838 169.466,252.505 173.5,252.5 Z"/></g>
<g><path style="opacity:1" fill="#2b6547" d="M 415.5,252.5 C 418.426,255.72 419.093,259.387 417.5,263.5C 416.224,264.386 416.224,265.386 417.5,266.5C 418.107,266.376 418.44,266.043 418.5,265.5C 419.586,265.38 420.253,264.713 420.5,263.5C 420.929,260.971 421.596,258.638 422.5,256.5C 423.822,256.33 424.989,256.663 426,257.5C 426.801,260.367 426.634,263.034 425.5,265.5C 423.241,266.344 422.241,268.011 422.5,270.5C 418.661,274.803 414.328,275.47 409.5,272.5C 408.738,270.738 407.404,269.738 405.5,269.5C 403.351,264.971 403.018,260.305 404.5,255.5C 404.833,254.5 405.5,253.833 406.5,253.5C 409.43,252.701 412.43,252.368 415.5,252.5 Z M 411.5,258.5 C 411.66,260.199 411.494,261.866 411,263.5C 410.617,262.944 410.117,262.611 409.5,262.5C 409.157,260.517 409.824,259.183 411.5,258.5 Z"/></g>
<g><path style="opacity:0.725" fill="#80a593" d="M 161.5,253.5 C 160.738,255.262 159.404,256.262 157.5,256.5C 158.262,254.738 159.596,253.738 161.5,253.5 Z"/></g>
<g><path style="opacity:0.639" fill="#95b3a5" d="M 176.5,253.5 C 179.189,254.189 180.856,255.856 181.5,258.5C 179.451,257.118 177.785,255.452 176.5,253.5 Z"/></g>
<g><path style="opacity:0.91" fill="#7ca18f" d="M 157.5,256.5 C 157.262,258.404 156.262,259.738 154.5,260.5C 154.738,258.596 155.738,257.262 157.5,256.5 Z"/></g>
<g><path style="opacity:0.498" fill="#97b5a7" d="M 422.5,256.5 C 421.596,258.638 420.929,260.971 420.5,263.5C 420.253,264.713 419.586,265.38 418.5,265.5C 419.92,262.699 420.254,259.866 419.5,257C 420.503,255.454 421.503,255.287 422.5,256.5 Z"/></g>
<g><path style="opacity:0.208" fill="#b4cac0" d="M 173.5,261.5 C 170.455,261.508 167.455,261.841 164.5,262.5C 165.946,261.06 167.779,260.393 170,260.5C 171.385,260.514 172.551,260.848 173.5,261.5 Z"/></g>
<g><path style="opacity:0.271" fill="#b2c9be" d="M 181.5,258.5 C 182.906,258.973 183.573,259.973 183.5,261.5C 182.094,261.027 181.427,260.027 181.5,258.5 Z"/></g>
<g><path style="opacity:0.576" fill="#b1c8bd" d="M 173.5,261.5 C 175.5,261.5 176.5,262.5 176.5,264.5C 175.167,263.833 174.167,262.833 173.5,261.5 Z"/></g>
<g><path style="opacity:0.278" fill="#b4cfcb" d="M 320.5,260.5 C 321.805,262.397 322.471,264.731 322.5,267.5C 322.471,270.269 321.805,272.603 320.5,274.5C 321.833,269.833 321.833,265.167 320.5,260.5 Z"/></g>
<g><path style="opacity:0.682" fill="#82a795" d="M 411.5,258.5 C 412.461,260.265 412.795,262.265 412.5,264.5C 410.821,264.715 409.821,264.048 409.5,262.5C 409.821,264.048 410.821,264.715 412.5,264.5C 412.795,262.265 412.461,260.265 411.5,258.5 Z"/></g>
<g><path style="opacity:0.016" fill="#d1ded8" d="M 417.5,263.5 C 417.328,264.492 417.662,265.158 418.5,265.5C 418.44,266.043 418.107,266.376 417.5,266.5C 416.224,265.386 416.224,264.386 417.5,263.5 Z"/></g>
<g><path style="opacity:0.471" fill="#99b7a9" d="M 162.5,264.5 C 161.962,266.117 161.629,267.784 161.5,269.5C 160.07,267.545 160.403,265.879 162.5,264.5 Z"/></g>
<g><path style="opacity:0.506" fill="#b3cfca" d="M 218.5,264.5 C 220.446,265.035 221.446,266.368 221.5,268.5C 220.026,267.564 219.026,266.23 218.5,264.5 Z"/></g>
<g><path style="opacity:0.298" fill="#b5cac0" d="M 404.5,255.5 C 403.018,260.305 403.351,264.971 405.5,269.5C 403.073,267.492 402.073,264.826 402.5,261.5C 402.667,259.833 402.833,258.167 403,256.5C 403.383,255.944 403.883,255.611 404.5,255.5 Z"/></g>
<g><path style="opacity:1" fill="#67917a" d="M 425.5,265.5 C 425.25,267.674 424.25,269.341 422.5,270.5C 422.241,268.011 423.241,266.344 425.5,265.5 Z"/></g>
<g><path style="opacity:0.313" fill="#b4d0cc" d="M 262.5,257.5 C 262.753,261.415 262.087,265.081 260.5,268.5C 278.833,268.5 297.167,268.5 315.5,268.5C 313.913,265.081 313.247,261.415 313.5,257.5C 314.497,261.46 315.497,265.46 316.5,269.5C 297.5,269.5 278.5,269.5 259.5,269.5C 260.503,265.46 261.503,261.46 262.5,257.5 Z"/></g>
<g><path style="opacity:0.796" fill="#8dae9e" d="M 405.5,269.5 C 407.404,269.738 408.738,270.738 409.5,272.5C 407.596,272.262 406.262,271.262 405.5,269.5 Z"/></g>
<g><path style="opacity:0.016" fill="#b0c7bc" d="M 183.5,262.5 C 184.477,265.287 184.81,268.287 184.5,271.5C 183.5,271.5 182.5,271.5 181.5,271.5C 183.242,268.855 183.909,265.855 183.5,262.5 Z"/></g>
<g><path style="opacity:0.302" fill="#c3d4cc" d="M 176.5,264.5 C 176.902,267.477 177.902,270.143 179.5,272.5C 178.791,273.404 177.791,273.737 176.5,273.5C 176.5,270.5 176.5,267.5 176.5,264.5 Z"/></g>
<g><path style="opacity:0.02" fill="#caddda" d="M 225.5,272.5 C 227.833,274.167 229.833,276.167 231.5,278.5C 228.5,277.5 226.5,275.5 225.5,272.5 Z"/></g>
<g><path style="opacity:0.02" fill="#d3e3e1" d="M 350.5,272.5 C 350.573,274.027 349.906,275.027 348.5,275.5C 348.427,273.973 349.094,272.973 350.5,272.5 Z"/></g>
<g><path style="opacity:0.397" fill="#a8c8c3" d="M 254.5,273.5 C 276.425,274.489 298.425,274.822 320.5,274.5C 309.672,275.167 298.672,275.5 287.5,275.5C 276.146,275.499 265.146,274.832 254.5,273.5 Z"/></g>
<g><path style="opacity:0.051" fill="#c8d8d1" d="M 164.5,274.5 C 165.043,274.56 165.376,274.893 165.5,275.5C 164.675,276.386 163.675,276.719 162.5,276.5C 163.167,275.833 163.833,275.167 164.5,274.5 Z"/></g>
<g><path style="opacity:0.941" fill="#9cbfb9" d="M 348.5,275.5 C 347.738,277.262 346.404,278.262 344.5,278.5C 345.598,277.603 345.598,276.77 344.5,276C 345.793,275.51 347.127,275.343 348.5,275.5 Z"/></g>
<g><path style="opacity:0.631" fill="#97b5a7" d="M 156.5,275.5 C 158.435,276.15 160.435,276.483 162.5,276.5C 160.095,279.315 158.095,278.982 156.5,275.5 Z"/></g>
<g><path style="opacity:0.651" fill="#abc4b8" d="M 193.5,279.5 C 192.609,280.11 191.609,280.443 190.5,280.5C 191.221,278.618 192.221,278.285 193.5,279.5 Z"/></g>
<g><path style="opacity:0.753" fill="#87a999" d="M 190.5,280.5 C 190.027,281.906 189.027,282.573 187.5,282.5C 187.973,281.094 188.973,280.427 190.5,280.5 Z"/></g>
<g><path style="opacity:0.999" fill="#2c6648" d="M 193.5,279.5 C 194.5,279.833 195.167,280.5 195.5,281.5C 195.973,282.906 196.973,283.573 198.5,283.5C 199.645,284.793 199.311,285.959 197.5,287C 195.004,288.08 192.67,289.414 190.5,291C 195.626,293.108 197.626,296.608 196.5,301.5C 195.603,302.598 194.77,302.598 194,301.5C 193.079,302.708 192.579,304.042 192.5,305.5C 189.067,308.059 185.401,310.392 181.5,312.5C 180.893,312.376 180.56,312.043 180.5,311.5C 179.738,309.738 178.404,308.738 176.5,308.5C 176.557,307.391 176.89,306.391 177.5,305.5C 179.336,303.412 181.669,302.079 184.5,301.5C 186.027,301.573 187.027,300.906 187.5,299.5C 188.586,299.38 189.253,298.713 189.5,297.5C 189.457,296.584 189.124,295.917 188.5,295.5C 187.305,295.322 186.138,294.989 185,294.5C 181.901,296.299 178.735,297.966 175.5,299.5C 173.784,299.371 172.117,299.038 170.5,298.5C 168.599,297.065 168.266,295.398 169.5,293.5C 171.027,293.573 172.027,292.906 172.5,291.5C 174.336,289.412 176.669,288.079 179.5,287.5C 181.027,287.573 182.027,286.906 182.5,285.5C 183.659,283.75 185.326,282.75 187.5,282.5C 189.027,282.573 190.027,281.906 190.5,280.5C 191.609,280.443 192.609,280.11 193.5,279.5 Z"/></g>
<g><path style="opacity:0.004" fill="#c9d9d2" d="M 195.5,281.5 C 197.027,281.427 198.027,282.094 198.5,283.5C 196.973,283.573 195.973,282.906 195.5,281.5 Z"/></g>
<g><path style="opacity:0.039" fill="#e3ebe7" d="M 398.5,279.5 C 400.382,280.221 400.715,281.221 399.5,282.5C 398.89,281.609 398.557,280.609 398.5,279.5 Z"/></g>
<g><path style="opacity:0.145" fill="#c8d8d0" d="M 396.5,278.5 C 395.503,278.47 394.836,278.97 394.5,280C 393.922,281.811 393.422,283.645 393,285.5C 392.586,285.043 392.086,284.709 391.5,284.5C 390.818,285.243 390.151,285.909 389.5,286.5C 389.5,285.5 389.5,284.5 389.5,283.5C 390.5,283.5 391.5,283.5 392.5,283.5C 392.544,280.684 393.544,278.351 395.5,276.5C 396.298,276.957 396.631,277.624 396.5,278.5 Z"/></g>
<g><path style="opacity:0.999" fill="#1f5e3f" d="M 396.5,278.5 C 397.167,278.833 397.833,279.167 398.5,279.5C 398.557,280.609 398.89,281.609 399.5,282.5C 396.441,286.324 397.108,289.324 401.5,291.5C 401.5,292.833 402.167,293.5 403.5,293.5C 404.5,293.833 405.167,294.5 405.5,295.5C 406.11,296.391 406.443,297.391 406.5,298.5C 406.5,298.833 406.5,299.167 406.5,299.5C 405.768,300.808 404.934,302.142 404,303.5C 403.329,302.748 402.496,302.414 401.5,302.5C 400.415,300.413 398.749,299.08 396.5,298.5C 395.738,296.738 394.404,295.738 392.5,295.5C 391.5,295.167 390.833,294.5 390.5,293.5C 389.659,291.621 389.325,289.621 389.5,287.5C 389.5,287.167 389.5,286.833 389.5,286.5C 390.151,285.909 390.818,285.243 391.5,284.5C 392.086,284.709 392.586,285.043 393,285.5C 393.422,283.645 393.922,281.811 394.5,280C 394.836,278.97 395.503,278.47 396.5,278.5 Z"/></g>
<g><path style="opacity:0.776" fill="#7ea492" d="M 182.5,285.5 C 182.027,286.906 181.027,287.573 179.5,287.5C 179.973,286.094 180.973,285.427 182.5,285.5 Z"/></g>
<g><path style="opacity:0.008" fill="#dfebe8" d="M 334.5,286.5 C 334.027,287.906 333.027,288.573 331.5,288.5C 331.973,287.094 332.973,286.427 334.5,286.5 Z"/></g>
<g><path style="opacity:1" fill="#779e8a" d="M 389.5,287.5 C 389.325,289.621 389.659,291.621 390.5,293.5C 386.843,292.174 386.51,290.174 389.5,287.5 Z"/></g>
<g><path style="opacity:0.965" fill="#95bbb5" d="M 325.5,291.5 C 322.912,293.625 319.912,294.958 316.5,295.5C 318.848,292.847 321.848,291.513 325.5,291.5 Z"/></g>
<g><path style="opacity:0.659" fill="#9ab7a9" d="M 172.5,291.5 C 172.027,292.906 171.027,293.573 169.5,293.5C 169.973,292.094 170.973,291.427 172.5,291.5 Z"/></g>
<g><path style="opacity:0.608" fill="#adc5ba" d="M 401.5,291.5 C 402.5,291.833 403.167,292.5 403.5,293.5C 402.167,293.5 401.5,292.833 401.5,291.5 Z"/></g>
<g><path style="opacity:0.851" fill="#8aac9b" d="M 169.5,293.5 C 168.266,295.398 168.599,297.065 170.5,298.5C 168.616,298.288 167.283,297.288 166.5,295.5C 167.005,294.081 168.005,293.415 169.5,293.5 Z"/></g>
<g><path style="opacity:0.71" fill="#abc9c5" d="M 259.5,295.5 C 262.152,295.41 264.485,296.076 266.5,297.5C 263.848,297.59 261.515,296.924 259.5,295.5 Z"/></g>
<g><path style="opacity:0.702" fill="#9db9ac" d="M 392.5,295.5 C 394.404,295.738 395.738,296.738 396.5,298.5C 394.596,298.262 393.262,297.262 392.5,295.5 Z"/></g>
<g><path style="opacity:0.027" fill="#dae4df" d="M 405.5,295.5 C 407.552,296.053 407.885,297.053 406.5,298.5C 406.443,297.391 406.11,296.391 405.5,295.5 Z"/></g>
<g><path style="opacity:0.816" fill="#93b2a2" d="M 188.5,295.5 C 189.124,295.917 189.457,296.584 189.5,297.5C 189.253,298.713 188.586,299.38 187.5,299.5C 188.234,298.292 188.567,296.959 188.5,295.5 Z"/></g>
<g><path style="opacity:0.553" fill="#abcac5" d="M 266.5,297.5 C 269.781,297.42 272.781,298.087 275.5,299.5C 272.219,299.58 269.219,298.913 266.5,297.5 Z"/></g>
<g><path style="opacity:0.859" fill="#87a998" d="M 396.5,298.5 C 398.749,299.08 400.415,300.413 401.5,302.5C 399.251,301.92 397.585,300.587 396.5,298.5 Z"/></g>
<g><path style="opacity:0.475" fill="#a6c0b4" d="M 170.5,298.5 C 172.117,299.038 173.784,299.371 175.5,299.5C 173.545,300.93 171.879,300.597 170.5,298.5 Z"/></g>
<g><path style="opacity:0.706" fill="#8cae9e" d="M 187.5,299.5 C 187.027,300.906 186.027,301.573 184.5,301.5C 184.973,300.094 185.973,299.427 187.5,299.5 Z"/></g>
<g><path style="opacity:1" fill="#789d88" d="M 196.5,301.5 C 196.167,303.833 194.833,305.167 192.5,305.5C 192.579,304.042 193.079,302.708 194,301.5C 194.77,302.598 195.603,302.598 196.5,301.5 Z"/></g>
<g><path style="opacity:0.898" fill="#9ebaac" d="M 406.5,299.5 C 406.753,301.827 406.086,303.827 404.5,305.5C 403.145,304.812 402.145,303.812 401.5,302.5C 402.496,302.414 403.329,302.748 404,303.5C 404.934,302.142 405.768,300.808 406.5,299.5 Z"/></g>
<g><path style="opacity:0.478" fill="#9ebbad" d="M 177.5,305.5 C 176.89,306.391 176.557,307.391 176.5,308.5C 175.115,307.053 175.448,306.053 177.5,305.5 Z"/></g>
<g><path style="opacity:1" fill="#30684b" d="M 384.5,308.5 C 384.427,310.027 385.094,311.027 386.5,311.5C 387.972,313.117 388.639,315.117 388.5,317.5C 388.639,319.883 387.972,321.883 386.5,323.5C 385.094,323.973 384.427,324.973 384.5,326.5C 381.127,329.957 377.127,330.957 372.5,329.5C 372.027,328.094 371.027,327.427 369.5,327.5C 369.167,326.5 368.5,325.833 367.5,325.5C 365.172,323.834 364.172,321.501 364.5,318.5C 364.361,316.117 365.028,314.117 366.5,312.5C 367.345,311.329 368.011,309.995 368.5,308.5C 370.027,308.573 371.027,307.906 371.5,306.5C 376.367,303.539 380.7,304.206 384.5,308.5 Z M 378.5,313.5 C 381.236,316.486 381.57,319.486 379.5,322.5C 377.297,322.396 375.297,321.73 373.5,320.5C 372.61,318.218 372.444,315.885 373,313.5C 374.776,312.464 376.609,312.464 378.5,313.5 Z"/></g>
<g><path style="opacity:0.686" fill="#97b5a7" d="M 371.5,306.5 C 371.027,307.906 370.027,308.573 368.5,308.5C 368.973,307.094 369.973,306.427 371.5,306.5 Z"/></g>
<g><path style="opacity:0.714" fill="#9bb9ab" d="M 176.5,308.5 C 178.404,308.738 179.738,309.738 180.5,311.5C 178.596,311.262 177.262,310.262 176.5,308.5 Z"/></g>
<g><path style="opacity:0.192" fill="#c5d6ce" d="M 368.5,308.5 C 368.011,309.995 367.345,311.329 366.5,312.5C 366.157,310.517 366.824,309.183 368.5,308.5 Z"/></g>
<g><path style="opacity:0.549" fill="#91b1a1" d="M 384.5,308.5 C 385.906,308.973 386.573,309.973 386.5,311.5C 385.094,311.027 384.427,310.027 384.5,308.5 Z"/></g>
<g><path style="opacity:1" fill="#276244" d="M 219.5,317.5 C 220.898,318.777 221.564,320.443 221.5,322.5C 221.533,325.102 220.533,327.102 218.5,328.5C 215.098,328.658 211.764,328.324 208.5,327.5C 207.624,327.369 206.957,327.702 206.5,328.5C 207.901,329.521 209.235,330.521 210.5,331.5C 210.5,331.833 210.5,332.167 210.5,332.5C 210.657,333.873 210.49,335.207 210,336.5C 208.644,335.62 207.144,335.286 205.5,335.5C 205.027,334.094 204.027,333.427 202.5,333.5C 198.38,330.657 196.88,326.657 198,321.5C 198.278,320.584 198.778,319.918 199.5,319.5C 201.167,318.5 202.5,317.167 203.5,315.5C 205.452,315.005 207.452,314.672 209.5,314.5C 212.849,315.512 216.183,316.512 219.5,317.5 Z M 209.5,320.5 C 211.429,320.231 213.095,320.731 214.5,322C 212.465,322.599 210.799,322.099 209.5,320.5 Z"/></g>
<g><path style="opacity:1" fill="#6c9580" d="M 219.5,317.5 C 216.183,316.512 212.849,315.512 209.5,314.5C 207.452,314.672 205.452,315.005 203.5,315.5C 207.852,311.703 212.519,311.536 217.5,315C 218.381,315.708 219.047,316.542 219.5,317.5 Z"/></g>
<g><path style="opacity:0.522" fill="#a8c1b5" d="M 203.5,315.5 C 202.5,317.167 201.167,318.5 199.5,319.5C 199.833,317.167 201.167,315.833 203.5,315.5 Z"/></g>
<g><path style="opacity:0.71" fill="#729b87" d="M 378.5,313.5 C 381.538,315.251 382.705,317.917 382,321.5C 381.329,322.252 380.496,322.586 379.5,322.5C 381.57,319.486 381.236,316.486 378.5,313.5 Z"/></g>
<g><path style="opacity:0.153" fill="#c1d3cb" d="M 209.5,320.5 C 210.946,319.387 212.613,319.22 214.5,320C 215.337,321.011 215.67,322.178 215.5,323.5C 212.843,323.838 210.51,323.171 208.5,321.5C 208.624,320.893 208.957,320.56 209.5,320.5 Z M 209.5,320.5 C 210.799,322.099 212.465,322.599 214.5,322C 213.095,320.731 211.429,320.231 209.5,320.5 Z"/></g>
<g><path style="opacity:0.208" fill="#c5d6ce" d="M 342.5,320.5 C 343.947,319.115 344.947,319.448 345.5,321.5C 344.609,320.89 343.609,320.557 342.5,320.5 Z"/></g>
<g><path style="opacity:0.937" fill="#8aac9b" d="M 373.5,320.5 C 375.297,321.73 377.297,322.396 379.5,322.5C 378.399,323.598 377.066,323.765 375.5,323C 374.244,322.583 373.577,321.75 373.5,320.5 Z"/></g>
<g><path style="opacity:0.624" fill="#9ab8aa" d="M 341.5,321.5 C 341.027,322.906 340.027,323.573 338.5,323.5C 338.973,322.094 339.973,321.427 341.5,321.5 Z"/></g>
<g><path style="opacity:1" fill="#286345" d="M 342.5,320.5 C 343.609,320.557 344.609,320.89 345.5,321.5C 345.906,325.029 347.573,326.029 350.5,324.5C 351.461,326.265 351.795,328.265 351.5,330.5C 350.449,331.222 349.782,332.222 349.5,333.5C 349.12,335.698 349.787,337.365 351.5,338.5C 351.62,339.586 352.287,340.253 353.5,340.5C 355.073,340.248 356.406,339.582 357.5,338.5C 358.038,340.117 358.371,341.784 358.5,343.5C 358.5,344.167 358.167,344.5 357.5,344.5C 354.729,343.227 353.062,344.227 352.5,347.5C 351.167,348.833 349.833,348.833 348.5,347.5C 347.833,346.167 346.833,345.167 345.5,344.5C 344.662,344.158 344.328,343.492 344.5,342.5C 344.598,340.447 343.931,338.78 342.5,337.5C 341.833,336.833 341.167,336.167 340.5,335.5C 338.744,334.448 338.077,332.781 338.5,330.5C 337.583,327.995 337.583,325.662 338.5,323.5C 340.027,323.573 341.027,322.906 341.5,321.5C 341.5,320.833 341.833,320.5 342.5,320.5 Z"/></g>
<g><path style="opacity:0.008" fill="#d4e1db" d="M 386.5,323.5 C 386.573,325.027 385.906,326.027 384.5,326.5C 384.427,324.973 385.094,323.973 386.5,323.5 Z"/></g>
<g><path style="opacity:0.396" fill="#b0c8bd" d="M 206.5,326.5 C 205.833,326.5 205.5,326.833 205.5,327.5C 204.957,327.44 204.624,327.107 204.5,326.5C 205.257,325.227 205.923,325.227 206.5,326.5 Z"/></g>
<g><path style="opacity:0.016" fill="#c5d6ce" d="M 367.5,325.5 C 368.5,325.833 369.167,326.5 369.5,327.5C 368.167,327.5 367.5,326.833 367.5,325.5 Z"/></g>
<g><path style="opacity:0.725" fill="#9cb9ac" d="M 350.5,324.5 C 350.56,323.957 350.893,323.624 351.5,323.5C 354.068,325.998 354.068,328.331 351.5,330.5C 351.795,328.265 351.461,326.265 350.5,324.5 Z"/></g>
<g><path style="opacity:0.735" fill="#8fb0a1" d="M 208.5,327.5 C 211.764,328.324 215.098,328.658 218.5,328.5C 215.696,329.638 212.696,329.805 209.5,329C 208.944,328.617 208.611,328.117 208.5,327.5 Z"/></g>
<g><path style="opacity:0.796" fill="#81a593" d="M 323.5,329.5 C 319.802,329.552 316.135,329.886 312.5,330.5C 316.03,327.353 319.697,327.019 323.5,329.5 Z"/></g>
<g><path style="opacity:0.373" fill="#a1bcaf" d="M 369.5,327.5 C 371.027,327.427 372.027,328.094 372.5,329.5C 370.973,329.573 369.973,328.906 369.5,327.5 Z"/></g>
<g><path style="opacity:0.737" fill="#9ab7a9" d="M 243.5,330.5 C 240.098,330.342 236.764,330.676 233.5,331.5C 236.605,328.216 239.939,327.883 243.5,330.5 Z"/></g>
<g><path style="opacity:1" fill="#225f41" d="M 323.5,329.5 C 324.103,332.041 324.103,334.374 323.5,336.5C 321.565,335.85 319.565,335.517 317.5,335.5C 315.448,336.053 315.115,337.053 316.5,338.5C 319.744,339.463 322.744,340.796 325.5,342.5C 325.427,344.027 326.094,345.027 327.5,345.5C 327.5,348.167 327.5,350.833 327.5,353.5C 326.089,355.914 324.089,357.581 321.5,358.5C 318.5,358.5 315.5,358.5 312.5,358.5C 311.986,356.488 311.82,354.488 312,352.5C 314.552,354.02 316.718,353.687 318.5,351.5C 316.941,349.376 314.941,347.709 312.5,346.5C 312.027,345.094 311.027,344.427 309.5,344.5C 308.662,344.158 308.328,343.492 308.5,342.5C 308.5,339.833 308.5,337.167 308.5,334.5C 310.167,333.5 311.5,332.167 312.5,330.5C 316.135,329.886 319.802,329.552 323.5,329.5 Z"/></g>
<g><path style="opacity:0.02" fill="#dee8e3" d="M 210.5,332.5 C 210.5,332.167 210.5,331.833 210.5,331.5C 211.978,331.238 213.311,331.571 214.5,332.5C 214.376,333.107 214.043,333.44 213.5,333.5C 212.791,332.596 211.791,332.263 210.5,332.5 Z"/></g>
<g><path style="opacity:1" fill="#296446" d="M 243.5,330.5 C 244.492,330.328 245.158,330.662 245.5,331.5C 245.833,332.833 246.167,334.167 246.5,335.5C 245.778,336.551 244.778,337.218 243.5,337.5C 242.5,337.167 241.833,336.5 241.5,335.5C 240.791,334.596 239.791,334.263 238.5,334.5C 238.232,336.099 238.566,337.432 239.5,338.5C 239.427,340.027 240.094,341.027 241.5,341.5C 241.5,343.833 241.5,346.167 241.5,348.5C 236.85,352.404 232.016,352.404 227,348.5C 226.22,346.613 226.387,344.946 227.5,343.5C 228.5,342.167 229.5,342.167 230.5,343.5C 230.62,344.586 231.287,345.253 232.5,345.5C 233.416,345.457 234.083,345.124 234.5,344.5C 233.833,343.167 233.167,341.833 232.5,340.5C 232.5,337.833 232.5,335.167 232.5,332.5C 232.5,331.833 232.833,331.5 233.5,331.5C 236.764,330.676 240.098,330.342 243.5,330.5 Z"/></g>
<g><path style="opacity:0.631" fill="#97b5a7" d="M 312.5,330.5 C 311.5,332.167 310.167,333.5 308.5,334.5C 308.833,332.167 310.167,330.833 312.5,330.5 Z"/></g>
<g><path style="opacity:0.992" fill="#5e8a73" d="M 210.5,332.5 C 211.791,332.263 212.791,332.596 213.5,333.5C 211.808,338.064 209.142,338.731 205.5,335.5C 207.144,335.286 208.644,335.62 210,336.5C 210.49,335.207 210.657,333.873 210.5,332.5 Z"/></g>
<g><path style="opacity:0.173" fill="#cadad2" d="M 245.5,331.5 C 247.519,332.538 247.853,333.872 246.5,335.5C 246.167,334.167 245.833,332.833 245.5,331.5 Z"/></g>
<g><path style="opacity:0.408" fill="#adc5ba" d="M 338.5,330.5 C 338.077,332.781 338.744,334.448 340.5,335.5C 339.791,336.404 338.791,336.737 337.5,336.5C 337.205,334.265 337.539,332.265 338.5,330.5 Z"/></g>
<g><path style="opacity:0.396" fill="#9db9ac" d="M 202.5,333.5 C 204.027,333.427 205.027,334.094 205.5,335.5C 203.973,335.573 202.973,334.906 202.5,333.5 Z"/></g>
<g><path style="opacity:0.745" fill="#a1bcaf" d="M 232.5,332.5 C 232.5,335.167 232.5,337.833 232.5,340.5C 230.028,337.881 230.028,335.214 232.5,332.5 Z"/></g>
<g><path style="opacity:0.502" fill="#a5c0b3" d="M 323.5,329.5 C 325.379,331.915 325.713,334.582 324.5,337.5C 323.893,337.376 323.56,337.043 323.5,336.5C 324.103,334.374 324.103,332.041 323.5,329.5 Z"/></g>
<g><path style="opacity:0.114" fill="#cddcd5" d="M 241.5,335.5 C 239.952,335.821 239.285,336.821 239.5,338.5C 238.566,337.432 238.232,336.099 238.5,334.5C 239.791,334.263 240.791,334.596 241.5,335.5 Z"/></g>
<g><path style="opacity:0.353" fill="#a0bcaf" d="M 317.5,335.5 C 316.89,336.391 316.557,337.391 316.5,338.5C 315.115,337.053 315.448,336.053 317.5,335.5 Z"/></g>
<g><path style="opacity:0.851" fill="#8cad9d" d="M 349.5,333.5 C 350.537,334.93 351.204,336.597 351.5,338.5C 349.787,337.365 349.12,335.698 349.5,333.5 Z"/></g>
<g><path style="opacity:0.729" fill="#9ab8aa" d="M 246.5,335.5 C 246.67,336.822 246.337,337.989 245.5,339C 244.184,339.528 243.517,339.028 243.5,337.5C 244.778,337.218 245.778,336.551 246.5,335.5 Z"/></g>
<g><path style="opacity:0.8" fill="#87aa99" d="M 271.5,338.5 C 268.5,338.5 265.5,338.5 262.5,338.5C 265.5,335.833 268.5,335.833 271.5,338.5 Z"/></g>
<g><path style="opacity:0.675" fill="#a4bfb2" d="M 308.5,334.5 C 308.5,337.167 308.5,339.833 308.5,342.5C 306.028,339.786 306.028,337.119 308.5,334.5 Z"/></g>
<g><path style="opacity:1" fill="#30684b" d="M 262.5,338.5 C 265.5,338.5 268.5,338.5 271.5,338.5C 272.511,340.402 272.678,342.402 272,344.5C 271.329,343.748 270.496,343.414 269.5,343.5C 268.432,342.566 267.099,342.232 265.5,342.5C 265.263,343.791 265.596,344.791 266.5,345.5C 271.702,348.22 273.202,352.22 271,357.5C 266.572,360.928 262.072,361.261 257.5,358.5C 257.338,356.473 257.505,354.473 258,352.5C 258.383,353.056 258.883,353.389 259.5,353.5C 259.833,353.5 260.167,353.5 260.5,353.5C 261.568,354.434 262.901,354.768 264.5,354.5C 264.715,352.821 264.048,351.821 262.5,351.5C 258.741,348.897 257.741,345.564 259.5,341.5C 260.833,340.833 261.833,339.833 262.5,338.5 Z"/></g>
<g><path style="opacity:0.2" fill="#bccfc6" d="M 357.5,338.5 C 356.406,339.582 355.073,340.248 353.5,340.5C 352.287,340.253 351.62,339.586 351.5,338.5C 353.668,338.834 355.668,338.834 357.5,338.5 Z"/></g>
<g><path style="opacity:0.384" fill="#a6c1b5" d="M 239.5,338.5 C 240.906,338.973 241.573,339.973 241.5,341.5C 240.094,341.027 239.427,340.027 239.5,338.5 Z"/></g>
<g><path style="opacity:0.298" fill="#c7d7d0" d="M 262.5,338.5 C 261.833,339.833 260.833,340.833 259.5,341.5C 259.5,339.5 260.5,338.5 262.5,338.5 Z"/></g>
<g><path style="opacity:0.325" fill="#b9cec4" d="M 342.5,337.5 C 343.931,338.78 344.598,340.447 344.5,342.5C 343.069,341.22 342.402,339.553 342.5,337.5 Z"/></g>
<g><path style="opacity:0.773" fill="#97b5a6" d="M 357.5,338.5 C 360.726,339.877 361.059,341.543 358.5,343.5C 358.371,341.784 358.038,340.117 357.5,338.5 Z"/></g>
<g><path style="opacity:0.259" fill="#cbdad3" d="M 230.5,343.5 C 229.5,342.167 228.5,342.167 227.5,343.5C 228.5,340.833 229.5,340.833 230.5,343.5 Z"/></g>
<g><path style="opacity:0.224" fill="#bbcfc6" d="M 269.5,343.5 C 267.821,343.285 266.821,343.952 266.5,345.5C 265.596,344.791 265.263,343.791 265.5,342.5C 267.099,342.232 268.432,342.566 269.5,343.5 Z"/></g>
<g><path style="opacity:0.639" fill="#a1bcaf" d="M 325.5,342.5 C 326.906,342.973 327.573,343.973 327.5,345.5C 326.094,345.027 325.427,344.027 325.5,342.5 Z"/></g>
<g><path style="opacity:0.055" fill="#c2d4ca" d="M 230.5,343.5 C 231.708,344.234 233.041,344.567 234.5,344.5C 234.083,345.124 233.416,345.457 232.5,345.5C 231.287,345.253 230.62,344.586 230.5,343.5 Z"/></g>
<g><path style="opacity:0.631" fill="#a9c2b6" d="M 241.5,341.5 C 242.249,342.531 242.915,343.698 243.5,345C 242.915,346.302 242.249,347.469 241.5,348.5C 241.5,346.167 241.5,343.833 241.5,341.5 Z"/></g>
<g><path style="opacity:0.353" fill="#9fbbad" d="M 271.5,338.5 C 274.776,339.234 275.442,341.067 273.5,344C 272.312,346.968 270.978,346.802 269.5,343.5C 270.496,343.414 271.329,343.748 272,344.5C 272.678,342.402 272.511,340.402 271.5,338.5 Z"/></g>
<g><path style="opacity:0.996" fill="#638d76" d="M 357.5,344.5 C 356.341,346.25 354.674,347.25 352.5,347.5C 353.062,344.227 354.729,343.227 357.5,344.5 Z"/></g>
<g><path style="opacity:0.439" fill="#a4beb1" d="M 309.5,344.5 C 311.027,344.427 312.027,345.094 312.5,346.5C 310.973,346.573 309.973,345.906 309.5,344.5 Z"/></g>
<g><path style="opacity:0.012" fill="#bfd2c9" d="M 345.5,344.5 C 346.833,345.167 347.833,346.167 348.5,347.5C 346.5,347.5 345.5,346.5 345.5,344.5 Z"/></g>
<g><path style="opacity:0.631" fill="#a4beb2" d="M 327.5,345.5 C 329.714,348.044 329.714,350.711 327.5,353.5C 327.5,350.833 327.5,348.167 327.5,345.5 Z"/></g>
<g><path style="opacity:0.459" fill="#97b6a7" d="M 318.5,351.5 C 316.718,353.687 314.552,354.02 312,352.5C 311.82,354.488 311.986,356.488 312.5,358.5C 315.5,358.5 318.5,358.5 321.5,358.5C 314.688,362.428 310.688,360.428 309.5,352.5C 312.488,352.37 315.488,352.037 318.5,351.5 Z"/></g>
<g><path style="opacity:0.38" fill="#b4c9bf" d="M 262.5,351.5 C 264.048,351.821 264.715,352.821 264.5,354.5C 262.901,354.768 261.568,354.434 260.5,353.5C 262.993,353.869 263.66,353.203 262.5,351.5 Z"/></g>
<g><path style="opacity:0.596" fill="#b4cac0" d="M 259.5,353.5 C 258.883,353.389 258.383,353.056 258,352.5C 257.505,354.473 257.338,356.473 257.5,358.5C 256.711,358.217 256.044,357.717 255.5,357C 256.406,355.301 256.739,353.467 256.5,351.5C 258.179,351.285 259.179,351.952 259.5,353.5 Z"/></g>
</svg>
